<?xml version="1.0" encoding="utf-8"?>
<svg version="1.1" id="圖層_1" xmlns="http://www.w3.org/2000/svg" xmlns:xlink="http://www.w3.org/1999/xlink" x="0px" y="0px" viewBox="0 0 100 100" style="background: none; shape-rendering: auto;" xml:space="preserve" width="128px" height="128px"><g style="transform-origin: 50% 50%;"><g><g style="transform-origin: 49px 50px; transform: scale(0.93); animation: 1.11111s linear -1.11111s infinite normal forwards running breath-ac0a9544-b5f4-43d8-b7bb-fb458168af23;"><path style="fill: rgb(133, 171, 83); stroke: rgb(23, 23, 23); stroke-width: 3; stroke-miterlimit: 10;" d="M89,49.5c0-3.9-1.9-7.4-4.9-9.6c0,0,0,0,0,0 c1.3-3.3,1.2-7.1-0.7-10.4c-2-3.4-5.4-5.5-9.1-5.8c-0.5-3.5-2.5-6.7-5.8-8.6c-3.4-2-7.4-2-10.8-0.5c-2.2-2.8-5.5-4.6-9.3-4.6 c-3.9,0-7.4,1.9-9.6,4.9c0,0,0,0,0,0c-3.3-1.3-7.1-1.2-10.4,0.7c-3.4,2-5.5,5.4-5.8,9.1c-3.5,0.5-6.7,2.5-8.6,5.8 c-2,3.4-2,7.4-0.5,10.8C10.8,43.4,9,46.7,9,50.5c0,3.9,1.9,7.4,4.9,9.6c0,0,0,0,0,0c-1.3,3.3-1.2,7.1,0.7,10.4 c2,3.4,5.4,5.5,9.1,5.8c0.5,3.5,2.5,6.7,5.8,8.6c3.4,2,7.4,2,10.8,0.5c2.2,2.8,5.5,4.6,9.3,4.6c3.9,0,7.4-1.9,9.6-4.9c0,0,0,0,0,0 c3.3,1.3,7.1,1.2,10.4-0.7c3.4-2,5.5-5.4,5.8-9.1c3.5-0.5,6.7-2.5,8.6-5.8c2-3.4,2-7.4,0.5-10.8C87.2,56.6,89,53.3,89,49.5z M46.1,62.3c-1.5-1.6-3.5-2.7-5.6-3.1c-0.5-2.2-1.7-4.1-3.3-5.5c0.7-2.1,0.6-4.4-0.2-6.4c1.6-1.5,2.7-3.5,3.1-5.6 c2.2-0.5,4.1-1.7,5.5-3.3c2.1,0.7,4.4,0.6,6.4-0.2c1.5,1.6,3.5,2.7,5.6,3.1c0.5,2.2,1.7,4.1,3.3,5.5c-0.7,2.1-0.6,4.4,0.2,6.4 c-1.6,1.5-2.7,3.5-3.1,5.6c-2.2,0.5-4.1,1.7-5.5,3.3C50.4,61.4,48.2,61.5,46.1,62.3z"></path></g><g><g><g><g><g style="transform-origin: 63.7px 23.9028px; transform: scale(0.93); animation: 1.11111s linear -1.07143s infinite normal forwards running breath-ac0a9544-b5f4-43d8-b7bb-fb458168af23;"><path style="fill: rgb(255, 0, 17); stroke: rgb(23, 23, 23); stroke-width: 3; stroke-miterlimit: 10;" d="M63.7,12.4c-7.4,0-13.3,5.2-13.3,11.6 c0,0.1,0,0.2,0,0.2c0.1-3.2,3.2-5.8,6.9-5.8c3.8,0,6.9,2.7,6.9,6s-3.1,6-6.9,6c-3.3,0-6-2-6.8-4.7c1,5.5,6.5,9.7,13.1,9.7 C71.1,35.6,77,30.4,77,24C77,17.6,71.1,12.4,63.7,12.4z"></path></g><g style="transform-origin: 36.8524px 24px; transform: scale(0.93); animation: 1.11111s linear -1.03175s infinite normal forwards running breath-ac0a9544-b5f4-43d8-b7bb-fb458168af23;"><path style="fill: rgb(255, 0, 17); stroke: rgb(23, 23, 23); stroke-width: 3; stroke-miterlimit: 10;" d="M36.9,12.4c-7.4,0-13.3,5.2-13.3,11.6 c0,6.4,6,11.6,13.3,11.6c6.6,0,12.1-4.2,13.1-9.7c-0.7,2.7-3.5,4.7-6.8,4.7c-3.8,0-6.9-2.7-6.9-6s3.1-6,6.9-6 c3.7,0,6.8,2.6,6.9,5.8c0-0.1,0-0.2,0-0.2C50.3,17.6,44.3,12.4,36.9,12.4z"></path></g></g></g><g style="transform-origin: 46.0586px 34.0048px; transform: scale(0.93); animation: 1.11111s linear -0.992063s infinite normal forwards running breath-ac0a9544-b5f4-43d8-b7bb-fb458168af23;"><path style="fill: rgb(255, 0, 17); stroke: rgb(23, 23, 23); stroke-width: 3; stroke-miterlimit: 10;" d="M43,47.8L43,47.8c1.8,0.4,3.5-0.9,3.5-2.7 c0.1-3.5,0.6-7.6,1.7-12c0.8-3.4,1.8-6.4,2.9-9c0.7-1.7-0.3-3.5-2.1-3.9l0,0c-1.4-0.3-2.8,0.5-3.3,1.8c-1.1,3-2.2,6.5-3.1,10.3 c-1.1,4.6-1.6,8.8-1.8,12.5C40.7,46.2,41.6,47.5,43,47.8z"></path></g><g style="transform-origin: 52.2504px 34.0048px; transform: scale(0.93); animation: 1.11111s linear -0.952381s infinite normal forwards running breath-ac0a9544-b5f4-43d8-b7bb-fb458168af23;"><path style="fill: rgb(255, 0, 17); stroke: rgb(23, 23, 23); stroke-width: 3; stroke-miterlimit: 10;" d="M55.3,47.8L55.3,47.8c-1.8,0.4-3.5-0.9-3.5-2.7 c-0.1-3.5-0.6-7.6-1.7-12c-0.8-3.4-1.8-6.4-2.9-9c-0.7-1.7,0.3-3.5,2.1-3.9l0,0c1.4-0.3,2.8,0.5,3.3,1.8c1.1,3,2.2,6.5,3.1,10.3 c1.1,4.6,1.6,8.8,1.8,12.5C57.7,46.2,56.7,47.5,55.3,47.8z"></path></g></g></g><g style="transform-origin: 74.2px 42.6px; transform: scale(0.93); animation: 1.11111s linear -0.912698s infinite normal forwards running breath-ac0a9544-b5f4-43d8-b7bb-fb458168af23;"><circle style="fill: rgb(255, 172, 0); stroke: rgb(23, 23, 23); stroke-width: 3; stroke-miterlimit: 10;" cx="74.2" cy="42.6" r="5.2"></circle></g><g style="transform-origin: 88.1px 51.2px; transform: scale(0.93); animation: 1.11111s linear -0.873016s infinite normal forwards running breath-ac0a9544-b5f4-43d8-b7bb-fb458168af23;"><circle style="fill: rgb(255, 172, 0); stroke: rgb(23, 23, 23); stroke-width: 3; stroke-miterlimit: 10;" cx="88.1" cy="51.2" r="5.2"></circle></g><g style="transform-origin: 11.9px 50.3px; transform: scale(0.93); animation: 1.11111s linear -0.833333s infinite normal forwards running breath-ac0a9544-b5f4-43d8-b7bb-fb458168af23;"><circle style="fill: rgb(255, 172, 0); stroke: rgb(23, 23, 23); stroke-width: 3; stroke-miterlimit: 10;" cx="11.9" cy="50.3" r="5.2"></circle></g><g style="transform-origin: 27.8px 80.1px; transform: scale(0.93); animation: 1.11111s linear -0.793651s infinite normal forwards running breath-ac0a9544-b5f4-43d8-b7bb-fb458168af23;"><circle style="fill: rgb(255, 172, 0); stroke: rgb(23, 23, 23); stroke-width: 3; stroke-miterlimit: 10;" cx="27.8" cy="80.1" r="5.2"></circle></g><g style="transform-origin: 71px 78.6px; transform: scale(0.93); animation: 1.11111s linear -0.753968s infinite normal forwards running breath-ac0a9544-b5f4-43d8-b7bb-fb458168af23;"><circle style="fill: rgb(255, 172, 0); stroke: rgb(23, 23, 23); stroke-width: 3; stroke-miterlimit: 10;" cx="71" cy="78.6" r="5.2"></circle></g><g style="transform-origin: 76.4237px 59.2907px; transform: scale(0.93); animation: 1.11111s linear -0.714286s infinite normal forwards running breath-ac0a9544-b5f4-43d8-b7bb-fb458168af23;"><ellipse transform="matrix(0.6752 -0.7376 0.7376 0.6752 -18.9013 75.604)" style="fill: rgb(248, 178, 106); stroke: rgb(23, 23, 23); stroke-width: 3; stroke-miterlimit: 10;" cx="76.4" cy="59.3" rx="3.4" ry="3.4"></ellipse></g><g style="transform-origin: 46.7594px 76.3099px; transform: scale(0.93); animation: 1.11111s linear -0.674603s infinite normal forwards running breath-ac0a9544-b5f4-43d8-b7bb-fb458168af23;"><ellipse transform="matrix(0.6752 -0.7376 0.7376 0.6752 -41.1188 59.3118)" style="fill: rgb(248, 178, 106); stroke: rgb(23, 23, 23); stroke-width: 3; stroke-miterlimit: 10;" cx="46.8" cy="76.3" rx="3.4" ry="3.4"></ellipse></g><g style="transform-origin: 28.5725px 43.2854px; transform: scale(0.93); animation: 1.11111s linear -0.634921s infinite normal forwards running breath-ac0a9544-b5f4-43d8-b7bb-fb458168af23;"><ellipse transform="matrix(0.6752 -0.7376 0.7376 0.6752 -22.6763 35.1446)" style="fill: rgb(248, 178, 106); stroke: rgb(23, 23, 23); stroke-width: 3; stroke-miterlimit: 10;" cx="28.6" cy="43.3" rx="3.4" ry="3.4"></ellipse></g><g style="transform-origin: 24.016px 62.7052px; transform: scale(0.93); animation: 1.11111s linear -0.595238s infinite normal forwards running breath-ac0a9544-b5f4-43d8-b7bb-fb458168af23;"><ellipse transform="matrix(0.6752 -0.7376 0.7376 0.6752 -38.4363 38.0726)" style="fill: rgb(248, 178, 106); stroke: rgb(23, 23, 23); stroke-width: 3; stroke-miterlimit: 10;" cx="24" cy="62.7" rx="3.4" ry="3.4"></ellipse></g><metadata xmlns:d="https://loading.io/stock/">
<d:name>christmas wreath</d:name>
<d:tags>christmas wreath, decoration, ornament, festival , party</d:tags>
<d:license>cc-by</d:license>
<d:slug>kwsrf5</d:slug>
</metadata></g></g><style id="breath-ac0a9544-b5f4-43d8-b7bb-fb458168af23" data-anikit="">@keyframes breath-ac0a9544-b5f4-43d8-b7bb-fb458168af23
{
  0% {
    animation-timing-function: cubic-bezier(0.6851,0.3,0.2008,0.72);
    transform: scale(0.9299999999999999);
  }
  51% {
    animation-timing-function: cubic-bezier(0.6355,0.3101,0.265,0.7039);
    transform: scale(1.00992);
  }
  100% {
    transform: scale(0.9299999999999999);
  }
}</style><style id="breath-ac0a9544-b5f4-43d8-b7bb-fb458168af23" data-anikit="">@keyframes breath-ac0a9544-b5f4-43d8-b7bb-fb458168af23
{
  0% {
    animation-timing-function: cubic-bezier(0.6851,0.3,0.2008,0.72);
    transform: scale(0.9299999999999999);
  }
  51% {
    animation-timing-function: cubic-bezier(0.6355,0.3101,0.265,0.7039);
    transform: scale(1.00992);
  }
  100% {
    transform: scale(0.9299999999999999);
  }
}</style><!-- generated by https://loading.io/ --></svg>